<svg xmlns="http://www.w3.org/2000/svg" viewBox="0 0 100 100">
  <rect width="100" height="100" rx="20" fill="#000000"/>
  <path d="M50 20 C33.4315 20 20 33.4315 20 50 V80 C20 82.7614 22.2386 85 25 85 C26.1046 85 27.1046 84.5523 27.8536 83.8536 L33.2929 78.4142 C34.184 77.5231 35.6291 77.5231 36.5202 78.4142 L41.9596 83.8536 C42.7085 84.6025 43.8342 85 45 85 C46.1658 85 47.2915 84.6025 48.0404 83.8536 L53.4798 78.4142 C54.3709 77.5231 55.816 77.5231 56.7071 78.4142 L62.1464 83.8536 C62.8954 84.6025 64.0211 85 65.1868 85 C66.3526 85 67.4783 84.6025 68.2272 83.8536 L73.6666 78.4142 C74.5577 77.5231 76.0028 77.5231 76.8939 78.4142 L82.3333 83.8536 C83.0822 84.6025 84.2079 85 85.3736 85 C87.9284 85 90 82.7614 90 80 V50 C90 33.4315 76.5685 20 60 20 Z" fill="#FF5F1F"/>
  <circle cx="40" cy="45" r="5" fill="#000000"/>
  <circle cx="60" cy="45" r="5" fill="#000000"/>
</svg>
